<svg width="40" height="40" viewBox="0 0 40 40" fill="none" xmlns="http://www.w3.org/2000/svg">
<path d="M16.25 2.5C14.1938 2.5 12.5 4.19375 12.5 6.25V21.0162L11.68 20.1562L11.3675 19.8825C10.6723 19.1903 9.73112 18.8017 8.75004 18.8017C7.76896 18.8017 6.82782 19.1903 6.13254 19.8825C5.44036 20.5778 5.05176 21.5189 5.05176 22.5C5.05176 23.4811 5.44036 24.4222 6.13254 25.1175V25.1562L16.3675 35.2737L16.445 35.3125L16.4838 35.3912C18.2826 36.7548 20.4766 37.4951 22.7338 37.5H24.8838C26.2286 37.5028 27.5607 37.24 28.8037 36.7266C30.0466 36.2132 31.176 35.4594 32.1268 34.5084C33.0777 33.5574 33.8314 32.428 34.3446 31.185C34.8578 29.942 35.1205 28.6098 35.1175 27.265V17.5C35.1175 15.4438 33.4225 13.75 31.3675 13.75C30.835 13.75 30.3425 13.8963 29.8825 14.1013C29.4725 12.4763 27.9938 11.25 26.25 11.25C25.2925 11.25 24.4138 11.625 23.75 12.2263C23.0667 11.6019 22.1756 11.254 21.25 11.25C20.8229 11.2553 20.3999 11.3349 20 11.485V6.25C20 4.19375 18.3063 2.5 16.25 2.5ZM16.25 5C16.9438 5 17.5 5.55625 17.5 6.25V20H20V15C20 14.3062 20.5563 13.75 21.25 13.75C21.9438 13.75 22.5 14.3062 22.5 15V20H25V15C25 14.3062 25.5563 13.75 26.25 13.75C26.9438 13.75 27.5 14.3062 27.5 15V20H30.1175V17.5C30.1175 16.8062 30.6738 16.25 31.3675 16.25C32.06 16.25 32.6175 16.8062 32.6175 17.5V27.2662C32.6175 31.5962 29.2138 35 24.8825 35H22.735C20.9038 35 19.3213 34.3463 18.0075 33.3588L7.89004 23.3588C7.33379 22.8025 7.33379 22.1963 7.89004 21.64C8.44754 21.0838 9.05254 21.0838 9.60879 21.64L15 27.0312V6.25C15 5.55625 15.5563 5 16.25 5Z" fill="black"/>
</svg>
