<svg width="30" height="370" viewBox="0 0 30 370" fill="none" xmlns="http://www.w3.org/2000/svg">
<path d="M0 0H20C25.5228 0 30 4.47715 30 10V360C30 365.523 25.5228 370 20 370H0V0Z" fill="#757575"/>
<path d="M10.2226 204.529C10.0799 204.222 10 203.808 10 203.378C10 202.948 10.0799 202.535 10.2226 202.227L18.1954 185L10.2226 167.776C10.0799 167.468 10 167.055 10 166.625C10 166.195 10.0799 165.782 10.2226 165.474C10.292 165.324 10.3749 165.205 10.4665 165.123C10.5581 165.042 10.6565 165 10.756 165C10.8554 165 10.9538 165.042 11.0454 165.123C11.1371 165.205 11.22 165.324 11.2894 165.474L19.7677 183.797C19.9167 184.119 20 184.551 20 185C20 185.449 19.9167 185.881 19.7677 186.203L11.2894 204.526C11.22 204.676 11.1371 204.795 11.0454 204.877C10.9538 204.958 10.8554 205 10.756 205C10.6565 205 10.5581 204.958 10.4665 204.877C10.3749 204.795 10.292 204.676 10.2226 204.526V204.529Z" fill="white"/>
</svg>
