<svg width="30" height="370" viewBox="0 0 30 370" fill="none" xmlns="http://www.w3.org/2000/svg">
<path d="M0 9.99999C0 4.47715 4.47715 0 10 0H30V370H10C4.47715 370 0 365.523 0 360V9.99999Z" fill="#757575"/>
<path d="M19.7774 204.529C19.9201 204.222 20 203.808 20 203.378C20 202.948 19.9201 202.535 19.7774 202.227L11.8046 185L19.7774 167.776C19.9201 167.468 20 167.055 20 166.625C20 166.195 19.9201 165.782 19.7774 165.474C19.708 165.324 19.6251 165.205 19.5335 165.123C19.4419 165.042 19.3435 165 19.244 165C19.1446 165 19.0462 165.042 18.9546 165.123C18.8629 165.205 18.78 165.324 18.7106 165.474L10.2323 183.797C10.0833 184.119 10 184.551 10 185C10 185.449 10.0833 185.881 10.2323 186.203L18.7106 204.526C18.78 204.676 18.8629 204.795 18.9546 204.877C19.0462 204.958 19.1446 205 19.244 205C19.3435 205 19.4419 204.958 19.5335 204.877C19.6251 204.795 19.708 204.676 19.7774 204.526V204.529Z" fill="white"/>
</svg>
