<svg width="30" height="70" viewBox="0 0 30 70" fill="none" xmlns="http://www.w3.org/2000/svg">
<rect width="30" height="70" rx="10" fill="#C4C4C4"/>
<path d="M19.7774 25.2354C19.9201 25.3892 20 25.5958 20 25.8109C20 26.0259 19.9201 26.2325 19.7774 26.3864L11.8046 35L19.7774 43.6119C19.9201 43.7658 20 43.9723 20 44.1874C20 44.4025 19.9201 44.6091 19.7774 44.7629C19.708 44.838 19.6251 44.8976 19.5335 44.9383C19.4419 44.979 19.3435 45 19.244 45C19.1446 45 19.0462 44.979 18.9546 44.9383C18.8629 44.8976 18.78 44.838 18.7106 44.7629L10.2323 35.6014C10.0833 35.4405 10 35.2247 10 35C10 34.7753 10.0833 34.5595 10.2323 34.3986L18.7106 25.2371C18.78 25.162 18.8629 25.1024 18.9546 25.0617C19.0462 25.021 19.1446 25 19.244 25C19.3435 25 19.4419 25.021 19.5335 25.0617C19.6251 25.1024 19.708 25.162 19.7774 25.2371V25.2354Z" fill="#333333"/>
</svg>
