<svg width="30" height="70" viewBox="0 0 30 70" fill="none" xmlns="http://www.w3.org/2000/svg">
<rect width="30" height="70" rx="10" fill="#757575"/>
<path d="M10.2226 25.2354C10.0799 25.3892 10 25.5958 10 25.8109C10 26.0259 10.0799 26.2325 10.2226 26.3864L18.1954 35L10.2226 43.6119C10.0799 43.7658 10 43.9723 10 44.1874C10 44.4025 10.0799 44.6091 10.2226 44.7629C10.292 44.838 10.3749 44.8976 10.4665 44.9383C10.5581 44.979 10.6565 45 10.756 45C10.8554 45 10.9538 44.979 11.0454 44.9383C11.1371 44.8976 11.22 44.838 11.2894 44.7629L19.7677 35.6014C19.9167 35.4405 20 35.2247 20 35C20 34.7753 19.9167 34.5595 19.7677 34.3986L11.2894 25.2371C11.22 25.162 11.1371 25.1024 11.0454 25.0617C10.9538 25.021 10.8554 25 10.756 25C10.6565 25 10.5581 25.021 10.4665 25.0617C10.3749 25.1024 10.292 25.162 10.2226 25.2371V25.2354Z" fill="white"/>
</svg>
