<svg width="20" height="70" viewBox="0 0 20 70" fill="none" xmlns="http://www.w3.org/2000/svg">
<rect width="20" height="70" rx="5" fill="#C4C4C4"/>
<path d="M7.13356 44.7646C7.04794 44.6108 7 44.4042 7 44.1891C7 43.9741 7.04794 43.7675 7.13356 43.6136L11.9173 35L7.13356 26.3881C7.04794 26.2342 7 26.0277 7 25.8126C7 25.5975 7.04794 25.3909 7.13356 25.2371C7.17518 25.162 7.22494 25.1024 7.2799 25.0617C7.33487 25.021 7.39393 25 7.45359 25C7.51325 25 7.5723 25.021 7.62727 25.0617C7.68223 25.1024 7.73199 25.162 7.77361 25.2371L12.8606 34.3986C12.95 34.5595 13 34.7753 13 35C13 35.2247 12.95 35.4405 12.8606 35.6014L7.77361 44.7629C7.73199 44.838 7.68223 44.8976 7.62727 44.9383C7.5723 44.979 7.51325 45 7.45359 45C7.39393 45 7.33487 44.979 7.2799 44.9383C7.22494 44.8976 7.17518 44.838 7.13356 44.7629V44.7646Z" fill="white"/>
</svg>
