<svg width="20" height="70" viewBox="0 0 20 70" fill="none" xmlns="http://www.w3.org/2000/svg">
<rect width="20" height="70" rx="5" fill="#C4C4C4"/>
<path d="M12.8664 25.2354C12.9521 25.3892 13 25.5958 13 25.8109C13 26.0259 12.9521 26.2325 12.8664 26.3864L8.08274 35L12.8664 43.6119C12.9521 43.7658 13 43.9723 13 44.1874C13 44.4025 12.9521 44.6091 12.8664 44.7629C12.8248 44.838 12.7751 44.8976 12.7201 44.9383C12.6651 44.979 12.6061 45 12.5464 45C12.4868 45 12.4277 44.979 12.3727 44.9383C12.3178 44.8976 12.268 44.838 12.2264 44.7629L7.13935 35.6014C7.05 35.4405 7 35.2247 7 35C7 34.7753 7.05 34.5595 7.13935 34.3986L12.2264 25.2371C12.268 25.162 12.3178 25.1024 12.3727 25.0617C12.4277 25.021 12.4868 25 12.5464 25C12.6061 25 12.6651 25.021 12.7201 25.0617C12.7751 25.1024 12.8248 25.162 12.8664 25.2371V25.2354Z" fill="white"/>
</svg>
