<svg width="19" height="19" viewBox="0 0 19 19" fill="none" xmlns="http://www.w3.org/2000/svg">
<path d="M1.21717 3.04465L13.5535 15.381H5.24991C4.85524 15.381 4.47674 15.5377 4.19767 15.8168C3.91859 16.0959 3.76181 16.4744 3.76181 16.8691C3.76181 17.2637 3.91859 17.6422 4.19767 17.9213C4.47674 18.2004 4.85524 18.3571 5.24991 18.3571H17.0803C17.4749 18.3571 17.8534 18.2004 18.1325 17.9213C18.4116 17.6422 18.5684 17.2637 18.5684 16.8691V4.96429C18.5684 4.56962 18.4116 4.19112 18.1325 3.91205C17.8534 3.63298 17.4749 3.4762 17.0803 3.4762H17.1547C16.76 3.4762 16.3815 3.63298 16.1024 3.91205C15.8234 4.19112 15.6666 4.56962 15.6666 4.96429V13.2232L3.37491 0.931554C3.23657 0.792077 3.07199 0.681369 2.89065 0.605821C2.70931 0.530272 2.51481 0.491377 2.31836 0.491377C2.12192 0.491377 1.92741 0.530272 1.74607 0.605821C1.56474 0.681369 1.40015 0.792077 1.26181 0.931554C1.11937 1.06692 1.00516 1.22916 0.92575 1.4089C0.846345 1.58865 0.803326 1.78234 0.799175 1.9788C0.795025 2.17526 0.829825 2.37059 0.901568 2.55353C0.97331 2.73647 1.08058 2.90338 1.21717 3.04465V3.04465Z" fill="white"/>
</svg>
