<svg width="30" height="30" viewBox="0 0 30 30" fill="none" xmlns="http://www.w3.org/2000/svg">
<path d="M14.9956 30C13.0258 30.002 11.0749 29.6153 9.2547 28.8623C7.43446 28.1092 5.78058 27.0044 4.38772 25.6112C2.99485 24.218 1.89036 22.5637 1.13746 20.743C0.384561 18.9223 -0.00196525 16.971 7.51352e-06 15.0007V14.7007C0.0600024 11.7599 0.98266 8.90164 2.65331 6.48107C4.32396 4.0605 6.66893 2.18437 9.39678 1.08586C12.1246 -0.0126465 15.1151 -0.2851 17.9965 0.302363C20.8779 0.889827 23.5231 2.3113 25.6035 4.39013C27.7024 6.48786 29.132 9.16127 29.7114 12.072C30.2907 14.9828 29.9937 18 28.858 20.7418C27.7223 23.4837 25.7989 25.8269 23.3313 27.475C20.8637 29.123 17.9627 30.0017 14.9956 30ZM14.9956 17.1156L18.8795 21.0004L20.9938 18.8855L17.11 15.0007L20.9938 11.1158L18.8795 9.00092L14.9956 12.8858L11.1117 9.00092L8.99736 11.1158L12.8812 15.0007L8.99736 18.8855L11.1117 21.0004L14.9956 17.1171V17.1156Z" fill="#1A700C"/>
</svg>
