<svg width="121" height="85" viewBox="0 0 121 85" fill="none" xmlns="http://www.w3.org/2000/svg">
<path d="M21.8754 53H17.6474V44.376H9.7234V53H5.4954V33.008H9.7234V40.848H17.6474V33.008H21.8754V53Z" fill="#DF0905"/>
<path d="M32.8416 37.404C34.8949 37.404 36.4629 37.852 37.5456 38.748C38.6469 39.6253 39.1976 40.9787 39.1976 42.808V53H36.2856L35.4736 50.928H35.3616C34.9322 51.4693 34.4842 51.9173 34.0176 52.272C33.5696 52.6267 33.0469 52.8787 32.4496 53.028C31.8709 53.196 31.1522 53.28 30.2936 53.28C29.3976 53.28 28.5856 53.112 27.8576 52.776C27.1482 52.4213 26.5882 51.8893 26.1776 51.18C25.7669 50.452 25.5616 49.5373 25.5616 48.436C25.5616 46.812 26.1309 45.6173 27.2696 44.852C28.4082 44.068 30.1162 43.6387 32.3936 43.564L35.0536 43.48V42.808C35.0536 42.0053 34.8389 41.4173 34.4096 41.044C33.9989 40.6707 33.4202 40.484 32.6736 40.484C31.9269 40.484 31.1989 40.596 30.4896 40.82C29.7802 41.0253 29.0709 41.2867 28.3616 41.604L26.9896 38.776C27.8109 38.3467 28.7162 38.0107 29.7056 37.768C30.7136 37.5253 31.7589 37.404 32.8416 37.404ZM33.4296 45.972C32.0856 46.0093 31.1522 46.252 30.6296 46.7C30.1069 47.148 29.8456 47.736 29.8456 48.464C29.8456 49.0987 30.0322 49.556 30.4056 49.836C30.7789 50.0973 31.2642 50.228 31.8616 50.228C32.7576 50.228 33.5136 49.9667 34.1296 49.444C34.7456 48.9027 35.0536 48.1467 35.0536 47.176V45.916L33.4296 45.972ZM52.148 37.432C53.7907 37.432 55.1067 37.88 56.096 38.776C57.0853 39.6533 57.58 41.072 57.58 43.032V53H53.408V44.068C53.408 42.9667 53.212 42.1453 52.82 41.604C52.428 41.044 51.8027 40.764 50.944 40.764C49.6747 40.764 48.8067 41.2027 48.34 42.08C47.8733 42.9387 47.64 44.18 47.64 45.804V53H43.468V37.712H46.66L47.22 39.672H47.444C47.78 39.1493 48.1907 38.7293 48.676 38.412C49.1613 38.076 49.7027 37.8333 50.3 37.684C50.8973 37.516 51.5133 37.432 52.148 37.432ZM70.5503 37.432C72.193 37.432 73.509 37.88 74.4983 38.776C75.4877 39.6533 75.9823 41.072 75.9823 43.032V53H71.8103V44.068C71.8103 42.9667 71.6143 42.1453 71.2223 41.604C70.8303 41.044 70.205 40.764 69.3463 40.764C68.077 40.764 67.209 41.2027 66.7423 42.08C66.2757 42.9387 66.0423 44.18 66.0423 45.804V53H61.8703V37.712H65.0623L65.6223 39.672H65.8463C66.1823 39.1493 66.593 38.7293 67.0783 38.412C67.5637 38.076 68.105 37.8333 68.7023 37.684C69.2997 37.516 69.9157 37.432 70.5503 37.432ZM94.3007 37.712V53H91.1087L90.5487 51.04H90.3247C90.0073 51.5627 89.5967 51.992 89.0927 52.328C88.6073 52.6453 88.066 52.8787 87.4687 53.028C86.8713 53.196 86.2553 53.28 85.6207 53.28C84.538 53.28 83.586 53.084 82.7647 52.692C81.9433 52.3 81.3087 51.6933 80.8607 50.872C80.4127 50.0507 80.1887 48.9867 80.1887 47.68V37.712H84.3607V46.644C84.3607 47.7267 84.5567 48.548 84.9487 49.108C85.3407 49.668 85.966 49.948 86.8247 49.948C87.6833 49.948 88.346 49.752 88.8127 49.36C89.298 48.968 89.634 48.3987 89.8207 47.652C90.026 46.9053 90.1287 45.9907 90.1287 44.908V37.712H94.3007ZM107.215 37.432C107.42 37.432 107.663 37.4413 107.943 37.46C108.223 37.4787 108.447 37.5067 108.615 37.544L108.307 41.464C108.176 41.4267 107.98 41.3987 107.719 41.38C107.476 41.3427 107.262 41.324 107.075 41.324C106.534 41.324 106.011 41.3987 105.507 41.548C105.003 41.6787 104.546 41.8933 104.135 42.192C103.743 42.4907 103.426 42.892 103.183 43.396C102.959 43.8813 102.847 44.488 102.847 45.216V53H98.675V37.712H101.839L102.455 40.288H102.651C102.95 39.7653 103.323 39.2893 103.771 38.86C104.219 38.4307 104.732 38.0853 105.311 37.824C105.908 37.5627 106.543 37.432 107.215 37.432ZM115.562 37.712V53H111.39V37.712H115.562ZM113.49 31.72C114.106 31.72 114.638 31.8693 115.086 32.168C115.534 32.448 115.758 32.98 115.758 33.764C115.758 34.5293 115.534 35.0613 115.086 35.36C114.638 35.6587 114.106 35.808 113.49 35.808C112.855 35.808 112.314 35.6587 111.866 35.36C111.437 35.0613 111.222 34.5293 111.222 33.764C111.222 32.98 111.437 32.448 111.866 32.168C112.314 31.8693 112.855 31.72 113.49 31.72Z" fill="#171717"/>
<path d="M51.4297 63.968V72.272H53.0257V63.968H51.4297ZM52.5697 67.352V68.66H54.5017V67.352H52.5697ZM44.2777 65.12V66.368H50.8177V65.12H44.2777ZM47.5537 66.764C45.9457 66.764 44.8177 67.64 44.8177 68.912C44.8177 70.184 45.9457 71.048 47.5537 71.048C49.1497 71.048 50.2777 70.184 50.2777 68.912C50.2777 67.64 49.1497 66.764 47.5537 66.764ZM47.5537 67.976C48.2617 67.976 48.7537 68.312 48.7537 68.912C48.7537 69.512 48.2617 69.836 47.5537 69.836C46.8457 69.836 46.3537 69.512 46.3537 68.912C46.3537 68.312 46.8457 67.976 47.5537 67.976ZM46.7497 63.944V65.732H48.3457V63.944H46.7497ZM45.8617 73.604V74.876H53.4217V73.604H45.8617ZM45.8617 71.648V74.156H47.4577V71.648H45.8617ZM56.5647 67.412V68.684H64.3407V67.412H56.5647ZM55.3287 69.944V71.228H65.3847V69.944H55.3287ZM59.5047 70.712V75.068H61.1007V70.712H59.5047ZM56.5647 64.448V68.012H58.1607V64.448H56.5647ZM74.0118 63.944V75.092H75.6078V63.944H74.0118ZM66.9558 71.204V72.5H67.9398C69.9678 72.5 71.5998 72.44 73.3998 72.116L73.2438 70.832C71.4798 71.132 69.9078 71.204 67.9398 71.204H66.9558ZM66.9438 64.892V66.164H70.5558V67.928H66.9558V71.684H68.5758V69.188H72.1878V64.892H66.9438Z" fill="#171717"/>
<line x1="7.78796" y1="68.5" x2="35.0456" y2="68.5" stroke="#171717"/>
<line x1="88.0033" y1="68.5" x2="115.261" y2="68.5" stroke="#171717"/>
</svg>
