<svg width="80" height="17" viewBox="0 0 80 17" fill="none" xmlns="http://www.w3.org/2000/svg">
<path d="M12.5137 16H9.49367V9.84H3.83367V16H0.813672V1.72H3.83367V7.32H9.49367V1.72H12.5137V16Z" fill="#DF0905"/>
<path d="M20.3466 4.86C21.8133 4.86 22.9333 5.18 23.7066 5.82C24.4933 6.44667 24.8866 7.41333 24.8866 8.72V16H22.8066L22.2266 14.52H22.1466C21.84 14.9067 21.52 15.2267 21.1866 15.48C20.8666 15.7333 20.4933 15.9133 20.0666 16.02C19.6533 16.14 19.14 16.2 18.5266 16.2C17.8866 16.2 17.3066 16.08 16.7866 15.84C16.28 15.5867 15.88 15.2067 15.5866 14.7C15.2933 14.18 15.1466 13.5267 15.1466 12.74C15.1466 11.58 15.5533 10.7267 16.3666 10.18C17.18 9.62 18.4 9.31333 20.0266 9.26L21.9266 9.2V8.72C21.9266 8.14667 21.7733 7.72667 21.4666 7.46C21.1733 7.19333 20.76 7.06 20.2266 7.06C19.6933 7.06 19.1733 7.14 18.6666 7.3C18.16 7.44667 17.6533 7.63333 17.1466 7.86L16.1666 5.84C16.7533 5.53333 17.4 5.29333 18.1066 5.12C18.8266 4.94667 19.5733 4.86 20.3466 4.86ZM20.7666 10.98C19.8066 11.0067 19.14 11.18 18.7666 11.5C18.3933 11.82 18.2066 12.24 18.2066 12.76C18.2066 13.2133 18.34 13.54 18.6066 13.74C18.8733 13.9267 19.22 14.02 19.6466 14.02C20.2866 14.02 20.8266 13.8333 21.2666 13.46C21.7066 13.0733 21.9266 12.5333 21.9266 11.84V10.94L20.7666 10.98ZM34.137 4.88C35.3103 4.88 36.2503 5.2 36.957 5.84C37.6636 6.46667 38.017 7.48 38.017 8.88V16H35.037V9.62C35.037 8.83333 34.897 8.24667 34.617 7.86C34.337 7.46 33.8903 7.26 33.277 7.26C32.3703 7.26 31.7503 7.57333 31.417 8.2C31.0836 8.81333 30.917 9.7 30.917 10.86V16H27.937V5.08H30.217L30.617 6.48H30.777C31.017 6.10667 31.3103 5.80667 31.657 5.58C32.0036 5.34 32.3903 5.16667 32.817 5.06C33.2436 4.94 33.6836 4.88 34.137 4.88ZM47.2815 4.88C48.4548 4.88 49.3948 5.2 50.1015 5.84C50.8082 6.46667 51.1615 7.48 51.1615 8.88V16H48.1815V9.62C48.1815 8.83333 48.0415 8.24667 47.7615 7.86C47.4815 7.46 47.0348 7.26 46.4215 7.26C45.5148 7.26 44.8948 7.57333 44.5615 8.2C44.2282 8.81333 44.0615 9.7 44.0615 10.86V16H41.0815V5.08H43.3615L43.7615 6.48H43.9215C44.1615 6.10667 44.4548 5.80667 44.8015 5.58C45.1482 5.34 45.5348 5.16667 45.9615 5.06C46.3882 4.94 46.8282 4.88 47.2815 4.88ZM64.246 5.08V16H61.966L61.566 14.6H61.406C61.1793 14.9733 60.886 15.28 60.526 15.52C60.1793 15.7467 59.7927 15.9133 59.366 16.02C58.9393 16.14 58.4993 16.2 58.046 16.2C57.2727 16.2 56.5927 16.06 56.006 15.78C55.4193 15.5 54.966 15.0667 54.646 14.48C54.326 13.8933 54.166 13.1333 54.166 12.2V5.08H57.146V11.46C57.146 12.2333 57.286 12.82 57.566 13.22C57.846 13.62 58.2927 13.82 58.906 13.82C59.5193 13.82 59.9927 13.68 60.326 13.4C60.6727 13.12 60.9127 12.7133 61.046 12.18C61.1927 11.6467 61.266 10.9933 61.266 10.22V5.08H64.246ZM73.4705 4.88C73.6172 4.88 73.7905 4.88667 73.9905 4.9C74.1905 4.91333 74.3505 4.93333 74.4705 4.96L74.2505 7.76C74.1572 7.73333 74.0172 7.71333 73.8305 7.7C73.6572 7.67333 73.5039 7.66 73.3705 7.66C72.9839 7.66 72.6105 7.71333 72.2505 7.82C71.8905 7.91333 71.5639 8.06667 71.2705 8.28C70.9905 8.49333 70.7639 8.78 70.5905 9.14C70.4305 9.48667 70.3505 9.92 70.3505 10.44V16H67.3705V5.08H69.6305L70.0705 6.92H70.2105C70.4239 6.54667 70.6905 6.20667 71.0105 5.9C71.3305 5.59333 71.6972 5.34667 72.1105 5.16C72.5372 4.97333 72.9905 4.88 73.4705 4.88ZM79.4326 5.08V16H76.4526V5.08H79.4326ZM77.9526 0.799999C78.3926 0.799999 78.7726 0.906666 79.0926 1.12C79.4126 1.32 79.5726 1.7 79.5726 2.26C79.5726 2.80667 79.4126 3.18667 79.0926 3.4C78.7726 3.61333 78.3926 3.72 77.9526 3.72C77.4992 3.72 77.1126 3.61333 76.7926 3.4C76.4859 3.18667 76.3326 2.80667 76.3326 2.26C76.3326 1.7 76.4859 1.32 76.7926 1.12C77.1126 0.906666 77.4992 0.799999 77.9526 0.799999Z" fill="#171717"/>
</svg>
