<svg width="155" height="85" viewBox="0 0 155 85" fill="none" xmlns="http://www.w3.org/2000/svg">
<path d="M39.0191 53H34.7911V44.376H26.8671V53H22.6391V33.008H26.8671V40.848H34.7911V33.008H39.0191V53ZM49.9853 37.404C52.0386 37.404 53.6066 37.852 54.6893 38.748C55.7906 39.6253 56.3413 40.9787 56.3413 42.808V53H53.4293L52.6173 50.928H52.5053C52.076 51.4693 51.628 51.9173 51.1613 52.272C50.7133 52.6267 50.1906 52.8787 49.5933 53.028C49.0146 53.196 48.296 53.28 47.4373 53.28C46.5413 53.28 45.7293 53.112 45.0013 52.776C44.292 52.4213 43.732 51.8893 43.3213 51.18C42.9106 50.452 42.7053 49.5373 42.7053 48.436C42.7053 46.812 43.2746 45.6173 44.4133 44.852C45.552 44.068 47.26 43.6387 49.5373 43.564L52.1973 43.48V42.808C52.1973 42.0053 51.9826 41.4173 51.5533 41.044C51.1426 40.6707 50.564 40.484 49.8173 40.484C49.0706 40.484 48.3426 40.596 47.6333 40.82C46.924 41.0253 46.2146 41.2867 45.5053 41.604L44.1333 38.776C44.9546 38.3467 45.86 38.0107 46.8493 37.768C47.8573 37.5253 48.9026 37.404 49.9853 37.404ZM50.5733 45.972C49.2293 46.0093 48.296 46.252 47.7733 46.7C47.2506 47.148 46.9893 47.736 46.9893 48.464C46.9893 49.0987 47.176 49.556 47.5493 49.836C47.9226 50.0973 48.408 50.228 49.0053 50.228C49.9013 50.228 50.6573 49.9667 51.2733 49.444C51.8893 48.9027 52.1973 48.1467 52.1973 47.176V45.916L50.5733 45.972ZM69.2917 37.432C70.9344 37.432 72.2504 37.88 73.2397 38.776C74.2291 39.6533 74.7237 41.072 74.7237 43.032V53H70.5517V44.068C70.5517 42.9667 70.3557 42.1453 69.9637 41.604C69.5717 41.044 68.9464 40.764 68.0877 40.764C66.8184 40.764 65.9504 41.2027 65.4837 42.08C65.0171 42.9387 64.7837 44.18 64.7837 45.804V53H60.6117V37.712H63.8037L64.3637 39.672H64.5877C64.9237 39.1493 65.3344 38.7293 65.8197 38.412C66.3051 38.076 66.8464 37.8333 67.4437 37.684C68.0411 37.516 68.6571 37.432 69.2917 37.432ZM87.6941 37.432C89.3367 37.432 90.6527 37.88 91.6421 38.776C92.6314 39.6533 93.1261 41.072 93.1261 43.032V53H88.9541V44.068C88.9541 42.9667 88.7581 42.1453 88.3661 41.604C87.9741 41.044 87.3487 40.764 86.4901 40.764C85.2207 40.764 84.3527 41.2027 83.8861 42.08C83.4194 42.9387 83.1861 44.18 83.1861 45.804V53H79.0141V37.712H82.2061L82.7661 39.672H82.9901C83.3261 39.1493 83.7367 38.7293 84.2221 38.412C84.7074 38.076 85.2487 37.8333 85.8461 37.684C86.4434 37.516 87.0594 37.432 87.6941 37.432ZM111.444 37.712V53H108.252L107.692 51.04H107.468C107.151 51.5627 106.74 51.992 106.236 52.328C105.751 52.6453 105.21 52.8787 104.612 53.028C104.015 53.196 103.399 53.28 102.764 53.28C101.682 53.28 100.73 53.084 99.9084 52.692C99.0871 52.3 98.4524 51.6933 98.0044 50.872C97.5564 50.0507 97.3324 48.9867 97.3324 47.68V37.712H101.504V46.644C101.504 47.7267 101.7 48.548 102.092 49.108C102.484 49.668 103.11 49.948 103.968 49.948C104.827 49.948 105.49 49.752 105.956 49.36C106.442 48.968 106.778 48.3987 106.964 47.652C107.17 46.9053 107.272 45.9907 107.272 44.908V37.712H111.444ZM124.359 37.432C124.564 37.432 124.807 37.4413 125.087 37.46C125.367 37.4787 125.591 37.5067 125.759 37.544L125.451 41.464C125.32 41.4267 125.124 41.3987 124.863 41.38C124.62 41.3427 124.405 41.324 124.219 41.324C123.677 41.324 123.155 41.3987 122.651 41.548C122.147 41.6787 121.689 41.8933 121.279 42.192C120.887 42.4907 120.569 42.892 120.327 43.396C120.103 43.8813 119.991 44.488 119.991 45.216V53H115.819V37.712H118.983L119.599 40.288H119.795C120.093 39.7653 120.467 39.2893 120.915 38.86C121.363 38.4307 121.876 38.0853 122.455 37.824C123.052 37.5627 123.687 37.432 124.359 37.432ZM132.706 37.712V53H128.534V37.712H132.706ZM130.634 31.72C131.25 31.72 131.782 31.8693 132.23 32.168C132.678 32.448 132.902 32.98 132.902 33.764C132.902 34.5293 132.678 35.0613 132.23 35.36C131.782 35.6587 131.25 35.808 130.634 35.808C129.999 35.808 129.458 35.6587 129.01 35.36C128.58 35.0613 128.366 34.5293 128.366 33.764C128.366 32.98 128.58 32.448 129.01 32.168C129.458 31.8693 129.999 31.72 130.634 31.72Z" fill="white"/>
<path d="M68.5734 63.968V72.272H70.1694V63.968H68.5734ZM69.7134 67.352V68.66H71.6454V67.352H69.7134ZM61.4214 65.12V66.368H67.9614V65.12H61.4214ZM64.6974 66.764C63.0894 66.764 61.9614 67.64 61.9614 68.912C61.9614 70.184 63.0894 71.048 64.6974 71.048C66.2934 71.048 67.4214 70.184 67.4214 68.912C67.4214 67.64 66.2934 66.764 64.6974 66.764ZM64.6974 67.976C65.4054 67.976 65.8974 68.312 65.8974 68.912C65.8974 69.512 65.4054 69.836 64.6974 69.836C63.9894 69.836 63.4974 69.512 63.4974 68.912C63.4974 68.312 63.9894 67.976 64.6974 67.976ZM63.8934 63.944V65.732H65.4894V63.944H63.8934ZM63.0054 73.604V74.876H70.5654V73.604H63.0054ZM63.0054 71.648V74.156H64.6014V71.648H63.0054ZM73.7085 67.412V68.684H81.4845V67.412H73.7085ZM72.4725 69.944V71.228H82.5285V69.944H72.4725ZM76.6485 70.712V75.068H78.2445V70.712H76.6485ZM73.7085 64.448V68.012H75.3045V64.448H73.7085ZM91.1555 63.944V75.092H92.7515V63.944H91.1555ZM84.0995 71.204V72.5H85.0835C87.1115 72.5 88.7435 72.44 90.5435 72.116L90.3875 70.832C88.6235 71.132 87.0515 71.204 85.0835 71.204H84.0995ZM84.0875 64.892V66.164H87.6995V67.928H84.0995V71.684H85.7195V69.188H89.3315V64.892H84.0875Z" fill="white"/>
<line x1="10" y1="68.5" x2="45" y2="68.5" stroke="white"/>
<line x1="113" y1="68.5" x2="148" y2="68.5" stroke="white"/>
</svg>
