<svg width="26" height="26" viewBox="0 0 26 26" fill="none" xmlns="http://www.w3.org/2000/svg">
<path d="M1.10433 4.0625L18.3752 21.3333H6.75016C6.19763 21.3333 5.66773 21.5528 5.27703 21.9435C4.88632 22.3342 4.66683 22.8641 4.66683 23.4167C4.66683 23.9692 4.88632 24.4991 5.27703 24.8898C5.66773 25.2805 6.19763 25.5 6.75016 25.5H23.3127C23.8652 25.5 24.3951 25.2805 24.7858 24.8898C25.1765 24.4991 25.396 23.9692 25.396 23.4167V6.75C25.396 6.19747 25.1765 5.66756 24.7858 5.27687C24.3951 4.88616 23.8652 4.66667 23.3127 4.66667H23.4168C22.8643 4.66667 22.3344 4.88616 21.9437 5.27687C21.553 5.66756 21.3335 6.19747 21.3335 6.75V18.3125L4.12516 1.10417C3.93149 0.908905 3.70107 0.753914 3.4472 0.648146C3.19333 0.542377 2.92102 0.487925 2.646 0.487925C2.37097 0.487925 2.09867 0.542377 1.8448 0.648146C1.59092 0.753914 1.3605 0.908905 1.16683 1.10417C0.967415 1.29369 0.80751 1.52082 0.696342 1.77246C0.585176 2.0241 0.524948 2.29527 0.519138 2.57031C0.513327 2.84536 0.562048 3.11883 0.662487 3.37494C0.762928 3.63105 0.913099 3.86473 1.10433 4.0625Z" fill="white"/>
</svg>
