<svg width="26" height="26" viewBox="0 0 26 26" fill="none" xmlns="http://www.w3.org/2000/svg">
<path d="M24.8957 21.9375L7.62484 4.66667H19.2498C19.8024 4.66667 20.3323 4.44717 20.723 4.05647C21.1137 3.66577 21.3332 3.13587 21.3332 2.58333C21.3332 2.0308 21.1137 1.5009 20.723 1.11019C20.3323 0.719494 19.8024 0.5 19.2498 0.5H2.68734C2.1348 0.5 1.6049 0.719494 1.2142 1.11019C0.823497 1.5009 0.604004 2.0308 0.604004 2.58333V19.25C0.604004 19.8025 0.823497 20.3324 1.2142 20.7231C1.6049 21.1138 2.1348 21.3333 2.68734 21.3333H2.58317C3.1357 21.3333 3.66561 21.1138 4.05631 20.7231C4.44701 20.3324 4.6665 19.8025 4.6665 19.25V7.6875L21.8748 24.8958C22.0685 25.0911 22.2989 25.2461 22.5528 25.3519C22.8067 25.4576 23.079 25.5121 23.354 25.5121C23.629 25.5121 23.9013 25.4576 24.1552 25.3519C24.4091 25.2461 24.6395 25.0911 24.8332 24.8958C25.0326 24.7063 25.1925 24.4792 25.3037 24.2275C25.4148 23.9759 25.4751 23.7047 25.4809 23.4297C25.4867 23.1546 25.438 22.8812 25.3375 22.6251C25.2371 22.3689 25.0869 22.1353 24.8957 21.9375Z" fill="white"/>
</svg>
