<svg width="265" height="110" viewBox="0 0 265 110" fill="none" xmlns="http://www.w3.org/2000/svg">
<path d="M55.5383 64H47.0823V46.752H31.2343V64H22.7783V24.016H31.2343V39.696H47.0823V24.016H55.5383V64Z" fill="#DF0905"/>
<path d="M77.4706 32.808C81.5773 32.808 84.7133 33.704 86.8786 35.496C89.0813 37.2507 90.1826 39.9573 90.1826 43.616V64H84.3586L82.7346 59.856H82.5106C81.6519 60.9387 80.7559 61.8347 79.8226 62.544C78.9266 63.2533 77.8813 63.7573 76.6866 64.056C75.5293 64.392 74.0919 64.56 72.3746 64.56C70.5826 64.56 68.9586 64.224 67.5026 63.552C66.0839 62.8427 64.9639 61.7787 64.1426 60.36C63.3213 58.904 62.9106 57.0747 62.9106 54.872C62.9106 51.624 64.0493 49.2347 66.3266 47.704C68.6039 46.136 72.0199 45.2773 76.5746 45.128L81.8946 44.96V43.616C81.8946 42.0107 81.4653 40.8347 80.6066 40.088C79.7853 39.3413 78.6279 38.968 77.1346 38.968C75.6413 38.968 74.1853 39.192 72.7666 39.64C71.3479 40.0507 69.9293 40.5733 68.5106 41.208L65.7666 35.552C67.4093 34.6933 69.2199 34.0213 71.1986 33.536C73.2146 33.0507 75.3053 32.808 77.4706 32.808ZM78.6466 49.944C75.9586 50.0187 74.0919 50.504 73.0466 51.4C72.0013 52.296 71.4786 53.472 71.4786 54.928C71.4786 56.1973 71.8519 57.112 72.5986 57.672C73.3453 58.1947 74.3159 58.456 75.5106 58.456C77.3026 58.456 78.8146 57.9333 80.0466 56.888C81.2786 55.8053 81.8946 54.2933 81.8946 52.352V49.832L78.6466 49.944ZM116.083 32.864C119.369 32.864 122.001 33.76 123.979 35.552C125.958 37.3067 126.947 40.144 126.947 44.064V64H118.603V46.136C118.603 43.9333 118.211 42.2907 117.427 41.208C116.643 40.088 115.393 39.528 113.675 39.528C111.137 39.528 109.401 40.4053 108.467 42.16C107.534 43.8773 107.067 46.36 107.067 49.608V64H98.7235V33.424H105.107L106.227 37.344H106.675C107.347 36.2987 108.169 35.4587 109.139 34.824C110.11 34.152 111.193 33.6667 112.387 33.368C113.582 33.032 114.814 32.864 116.083 32.864ZM152.888 32.864C156.173 32.864 158.805 33.76 160.784 35.552C162.763 37.3067 163.752 40.144 163.752 44.064V64H155.408V46.136C155.408 43.9333 155.016 42.2907 154.232 41.208C153.448 40.088 152.197 39.528 150.48 39.528C147.941 39.528 146.205 40.4053 145.272 42.16C144.339 43.8773 143.872 46.36 143.872 49.608V64H135.528V33.424H141.912L143.032 37.344H143.48C144.152 36.2987 144.973 35.4587 145.944 34.824C146.915 34.152 147.997 33.6667 149.192 33.368C150.387 33.032 151.619 32.864 152.888 32.864ZM200.389 33.424V64H194.005L192.885 60.08H192.437C191.802 61.1253 190.981 61.984 189.973 62.656C189.002 63.2907 187.92 63.7573 186.725 64.056C185.53 64.392 184.298 64.56 183.029 64.56C180.864 64.56 178.96 64.168 177.317 63.384C175.674 62.6 174.405 61.3867 173.509 59.744C172.613 58.1013 172.165 55.9733 172.165 53.36V33.424H180.509V51.288C180.509 53.4533 180.901 55.096 181.685 56.216C182.469 57.336 183.72 57.896 185.437 57.896C187.154 57.896 188.48 57.504 189.413 56.72C190.384 55.936 191.056 54.7973 191.429 53.304C191.84 51.8107 192.045 49.9813 192.045 47.816V33.424H200.389ZM226.218 32.864C226.628 32.864 227.114 32.8827 227.674 32.92C228.234 32.9573 228.682 33.0133 229.018 33.088L228.402 40.928C228.14 40.8533 227.748 40.7973 227.226 40.76C226.74 40.6853 226.311 40.648 225.938 40.648C224.855 40.648 223.81 40.7973 222.802 41.096C221.794 41.3573 220.879 41.7867 220.058 42.384C219.274 42.9813 218.639 43.784 218.154 44.792C217.706 45.7627 217.482 46.976 217.482 48.432V64H209.138V33.424H215.466L216.698 38.576H217.09C217.687 37.5307 218.434 36.5787 219.33 35.72C220.226 34.8613 221.252 34.1707 222.41 33.648C223.604 33.1253 224.874 32.864 226.218 32.864ZM242.911 33.424V64H234.567V33.424H242.911ZM238.767 21.44C239.999 21.44 241.063 21.7387 241.959 22.336C242.855 22.896 243.303 23.96 243.303 25.528C243.303 27.0587 242.855 28.1227 241.959 28.72C241.063 29.3173 239.999 29.616 238.767 29.616C237.498 29.616 236.415 29.3173 235.519 28.72C234.661 28.1227 234.231 27.0587 234.231 25.528C234.231 23.96 234.661 22.896 235.519 22.336C236.415 21.7387 237.498 21.44 238.767 21.44Z" fill="#171717"/>
<path d="M114.647 82.936V99.544H117.839V82.936H114.647ZM116.927 89.704V92.32H120.791V89.704H116.927ZM100.343 85.24V87.736H113.423V85.24H100.343ZM106.895 88.528C103.679 88.528 101.423 90.28 101.423 92.824C101.423 95.368 103.679 97.096 106.895 97.096C110.087 97.096 112.343 95.368 112.343 92.824C112.343 90.28 110.087 88.528 106.895 88.528ZM106.895 90.952C108.311 90.952 109.295 91.624 109.295 92.824C109.295 94.024 108.311 94.672 106.895 94.672C105.479 94.672 104.495 94.024 104.495 92.824C104.495 91.624 105.479 90.952 106.895 90.952ZM105.287 82.888V86.464H108.479V82.888H105.287ZM103.511 102.208V104.752H118.631V102.208H103.511ZM103.511 98.296V103.312H106.703V98.296H103.511ZM124.917 89.824V92.368H140.469V89.824H124.917ZM122.445 94.888V97.456H142.557V94.888H122.445ZM130.797 96.424V105.136H133.989V96.424H130.797ZM124.917 83.896V91.024H128.109V83.896H124.917ZM159.811 82.888V105.184H163.003V82.888H159.811ZM145.699 97.408V100H147.667C151.723 100 154.987 99.88 158.587 99.232L158.275 96.664C154.747 97.264 151.603 97.408 147.667 97.408H145.699ZM145.675 84.784V87.328H152.899V90.856H145.699V98.368H148.939V93.376H156.163V84.784H145.675Z" fill="#171717"/>
<line x1="38" y1="93.5" x2="73" y2="93.5" stroke="#171717"/>
<line x1="192" y1="93.5" x2="227" y2="93.5" stroke="#171717"/>
</svg>
