<svg width="19" height="19" viewBox="0 0 19 19" fill="none" xmlns="http://www.w3.org/2000/svg">
<path d="M18.0685 16.0982L5.73217 3.7619H14.0357C14.4304 3.7619 14.8089 3.60511 15.088 3.32604C15.3671 3.04697 15.5238 2.66847 15.5238 2.2738C15.5238 1.87913 15.3671 1.50063 15.088 1.22156C14.8089 0.942487 14.4304 0.785706 14.0357 0.785706H2.20538C1.81071 0.785706 1.43221 0.942487 1.15314 1.22156C0.874066 1.50063 0.717285 1.87913 0.717285 2.2738V14.1786C0.717285 14.5732 0.874066 14.9517 1.15314 15.2308C1.43221 15.5099 1.81071 15.6667 2.20538 15.6667H2.13098C2.52564 15.6667 2.90415 15.5099 3.18322 15.2308C3.46229 14.9517 3.61907 14.5732 3.61907 14.1786V5.91963L15.9107 18.2113C16.0491 18.3508 16.2137 18.4615 16.395 18.537C16.5763 18.6126 16.7708 18.6515 16.9673 18.6515C17.1637 18.6515 17.3582 18.6126 17.5396 18.537C17.7209 18.4615 17.8855 18.3508 18.0238 18.2113C18.1663 18.0759 18.2805 17.9137 18.3599 17.734C18.4393 17.5542 18.4823 17.3605 18.4865 17.1641C18.4906 16.9676 18.4558 16.7723 18.3841 16.5893C18.3123 16.4064 18.2051 16.2395 18.0685 16.0982V16.0982Z" fill="white"/>
</svg>
