<svg width="30" height="340" viewBox="0 0 30 340" fill="none" xmlns="http://www.w3.org/2000/svg">
<path d="M0 20C0 8.9543 8.95431 0 20 0H30V340H20C8.9543 340 0 331.046 0 320V20Z" fill="#F1F1F1"/>
<path d="M17.8225 180.002C18.1714 179.999 18.5159 179.885 18.8335 179.669C19.177 179.441 19.4696 179.071 19.6765 178.601C19.8833 178.131 19.9956 177.582 20 177.019V162.985C19.9956 162.422 19.8833 161.873 19.6765 161.403C19.4696 160.933 19.177 160.562 18.8335 160.335C18.4383 160.055 17.9986 159.947 17.5645 160.024C17.1304 160.101 16.7194 160.359 16.3783 160.769L10.7123 167.785C10.4901 168.051 10.3107 168.388 10.1874 168.772C10.064 169.155 10 169.576 10 170.002C10 170.428 10.064 170.849 10.1874 171.232C10.3107 171.616 10.4901 171.953 10.7123 172.219L16.3783 179.235C16.7867 179.732 17.2967 180.003 17.8225 180.002Z" fill="#555555"/>
</svg>
