<svg width="30" height="340" viewBox="0 0 30 340" fill="none" xmlns="http://www.w3.org/2000/svg">
<path d="M30 20C30 8.9543 21.0457 0 10 0H0V340H10C21.0457 340 30 331.046 30 320V20Z" fill="#F1F1F1"/>
<path d="M12.1775 180.002C11.8286 179.999 11.4841 179.885 11.1665 179.669C10.823 179.441 10.5304 179.071 10.3235 178.601C10.1167 178.131 10.0044 177.582 10 177.019V162.985C10.0044 162.422 10.1167 161.873 10.3235 161.403C10.5304 160.933 10.823 160.562 11.1665 160.335C11.5617 160.055 12.0014 159.947 12.4355 160.024C12.8696 160.101 13.2806 160.359 13.6217 160.769L19.2877 167.785C19.5099 168.051 19.6893 168.388 19.8126 168.772C19.936 169.155 20 169.576 20 170.002C20 170.428 19.936 170.849 19.8126 171.232C19.6893 171.616 19.5099 171.953 19.2877 172.219L13.6217 179.235C13.2133 179.732 12.7033 180.003 12.1775 180.002Z" fill="#555555"/>
</svg>
