<svg width="20" height="600" viewBox="0 0 20 600" fill="none" xmlns="http://www.w3.org/2000/svg">
<rect width="20" height="600" fill="#757575"/>
<path d="M13.2222 286.84C13.2935 287.016 13.3335 287.252 13.3335 287.498C13.3335 287.744 13.2935 287.98 13.2222 288.156L9.23578 298L13.2222 307.842C13.2935 308.018 13.3335 308.254 13.3335 308.5C13.3335 308.746 13.2935 308.982 13.2222 309.158C13.1875 309.243 13.146 309.312 13.1002 309.358C13.0544 309.405 13.0052 309.429 12.9555 309.429C12.9058 309.429 12.8566 309.405 12.8108 309.358C12.765 309.312 12.7235 309.243 12.6888 309.158L8.44962 298.687C8.37517 298.503 8.3335 298.257 8.3335 298C8.3335 297.743 8.37517 297.497 8.44962 297.313L12.6888 286.842C12.7235 286.757 12.765 286.688 12.8108 286.642C12.8566 286.595 12.9058 286.571 12.9555 286.571C13.0052 286.571 13.0544 286.595 13.1002 286.642C13.146 286.688 13.1875 286.757 13.2222 286.842V286.84Z" fill="white"/>
</svg>
