<svg width="20" height="600" viewBox="0 0 20 600" fill="none" xmlns="http://www.w3.org/2000/svg">
<rect width="20" height="600" fill="#C4C4C4"/>
<path d="M8.1113 286.839C8.03995 287.015 8 287.251 8 287.497C8 287.743 8.03995 287.979 8.1113 288.154L12.0977 297.999L8.1113 307.841C8.03995 308.017 8 308.253 8 308.499C8 308.744 8.03995 308.98 8.1113 309.156C8.14598 309.242 8.18745 309.31 8.23325 309.357C8.27906 309.403 8.32827 309.427 8.37799 309.427C8.4277 309.427 8.47692 309.403 8.52272 309.357C8.56853 309.31 8.60999 309.242 8.64468 309.156L12.8839 298.686C12.9583 298.502 13 298.255 13 297.999C13 297.742 12.9583 297.495 12.8839 297.311L8.64468 286.841C8.60999 286.755 8.56853 286.687 8.52272 286.641C8.47692 286.594 8.4277 286.57 8.37799 286.57C8.32827 286.57 8.27906 286.594 8.23325 286.641C8.18745 286.687 8.14598 286.755 8.1113 286.841V286.839Z" fill="white"/>
</svg>
