<svg width="50" height="50" viewBox="0 0 50 50" fill="none" xmlns="http://www.w3.org/2000/svg">
<path d="M24.9927 50C21.7097 50.0033 18.4582 49.3589 15.4245 48.1038C12.3908 46.8486 9.6343 45.0073 7.31286 42.6853C4.99142 40.3633 3.1506 37.6061 1.89577 34.5716C0.640934 31.5372 -0.00327542 28.2849 1.25225e-05 25.0011V24.5011C0.100004 19.5999 1.63777 14.8361 4.42218 10.8018C7.20659 6.7675 11.1149 3.64062 15.6613 1.80977C20.2077 -0.0210775 25.1918 -0.475167 29.9941 0.503939C34.7964 1.48305 39.2052 3.85217 42.6725 7.31688C46.1707 10.8131 48.5534 15.2688 49.519 20.12C50.4845 24.9713 49.9896 30 48.0967 34.5697C46.2039 39.1395 42.9982 43.0449 38.8855 45.7916C34.7728 48.5383 29.9379 50.0029 24.9927 50ZM24.9927 28.5259L31.4658 35.0007L34.9897 31.4758L28.5166 25.0011L34.9897 18.5264L31.4658 15.0015L24.9927 21.4763L18.5196 15.0015L14.9956 18.5264L21.4687 25.0011L14.9956 31.4758L18.5196 35.0007L24.9927 28.5284V28.5259Z" fill="#1A700C"/>
</svg>
