<svg width="40" height="80" viewBox="0 0 40 80" fill="none" xmlns="http://www.w3.org/2000/svg">
<rect width="40" height="80" fill="#757575"/>
<path d="M13.6301 28.8404C13.4398 29.0162 13.3333 29.2523 13.3333 29.4981C13.3333 29.7439 13.4398 29.98 13.6301 30.1558L24.2605 40L13.6301 49.8422C13.4398 50.018 13.3333 50.2541 13.3333 50.4999C13.3333 50.7457 13.4398 50.9818 13.6301 51.1576C13.7225 51.2434 13.8331 51.3115 13.9553 51.358C14.0774 51.4046 14.2086 51.4286 14.3412 51.4286C14.4738 51.4286 14.605 51.4046 14.7272 51.358C14.8493 51.3115 14.9599 51.2434 15.0524 51.1576L26.3569 40.6872C26.5555 40.5034 26.6666 40.2568 26.6666 40C26.6666 39.7432 26.5555 39.4966 26.3569 39.3127L15.0524 28.8424C14.9599 28.7566 14.8493 28.6885 14.7272 28.6419C14.605 28.5954 14.4738 28.5714 14.3412 28.5714C14.2086 28.5714 14.0774 28.5954 13.9553 28.6419C13.8331 28.6885 13.7225 28.7566 13.6301 28.8424V28.8404Z" fill="white"/>
</svg>
