<svg width="40" height="80" viewBox="0 0 40 80" fill="none" xmlns="http://www.w3.org/2000/svg">
<rect width="40" height="80" fill="#757575"/>
<path d="M26.0365 28.8404C26.2267 29.0162 26.3333 29.2523 26.3333 29.4981C26.3333 29.7439 26.2267 29.98 26.0365 30.1558L15.406 40L26.0365 49.8422C26.2267 50.018 26.3333 50.2541 26.3333 50.4999C26.3333 50.7457 26.2267 50.9818 26.0365 51.1576C25.944 51.2434 25.8334 51.3115 25.7112 51.358C25.5891 51.4046 25.4579 51.4286 25.3253 51.4286C25.1927 51.4286 25.0615 51.4046 24.9393 51.358C24.8172 51.3115 24.7066 51.2434 24.6141 51.1576L13.3096 40.6872C13.111 40.5034 12.9999 40.2568 12.9999 40C12.9999 39.7432 13.111 39.4966 13.3096 39.3127L24.6141 28.8424C24.7066 28.7566 24.8172 28.6885 24.9393 28.6419C25.0615 28.5954 25.1927 28.5714 25.3253 28.5714C25.4579 28.5714 25.5891 28.5954 25.7112 28.6419C25.8334 28.6885 25.944 28.7566 26.0365 28.8424V28.8404Z" fill="white"/>
</svg>
